<svg width="24" height="21" viewBox="0 0 24 21" fill="none" xmlns="http://www.w3.org/2000/svg">
<path fill-rule="evenodd" clip-rule="evenodd" d="M10.5397 0.524547C10.9343 0.186067 11.4371 0 11.9571 0C12.477 0 12.9798 0.186067 13.3744 0.524547L20.272 6.43576L22.9794 8.60212C23.091 8.69147 23.184 8.80194 23.2529 8.92721C23.3219 9.05249 23.3655 9.19012 23.3813 9.33225C23.397 9.47438 23.3847 9.61822 23.3448 9.75557C23.305 9.89291 23.2385 10.0211 23.1492 10.1327C23.0598 10.2444 22.9494 10.3373 22.8241 10.4063C22.6988 10.4753 22.5612 10.5189 22.4191 10.5346C22.2769 10.5504 22.1331 10.538 21.9957 10.4982C21.8584 10.4584 21.7302 10.3919 21.6186 10.3025C21.2347 9.99544 20.666 10.2688 20.666 10.7604V18.1613C20.666 18.7388 20.4366 19.2925 20.0283 19.7009C19.62 20.1092 19.0662 20.3386 18.4888 20.3386H18.1343C15.9252 20.3386 14.1343 18.5477 14.1343 16.3386V14.8954C14.1343 14.318 13.9049 13.7642 13.4966 13.3559C13.0883 12.9476 12.5345 12.7182 11.9571 12.7182C11.3796 12.7182 10.8258 12.9476 10.4175 13.3559C10.0092 13.7642 9.77981 14.318 9.77981 14.8954V16.3386C9.77981 18.5477 7.98895 20.3386 5.77981 20.3386H5.42533C4.84788 20.3386 4.29409 20.1092 3.88578 19.7009C3.47747 19.2925 3.24808 18.7388 3.24808 18.1613V10.7593C3.24808 10.2677 2.67942 9.99435 2.29554 10.3015C2.18464 10.3962 2.05586 10.4676 1.91682 10.5116C1.77778 10.5555 1.63133 10.5711 1.48616 10.5574C1.34099 10.5437 1.20005 10.5009 1.07171 10.4317C0.943381 10.3624 0.830265 10.2681 0.739083 10.1543C0.6479 10.0405 0.580509 9.90956 0.540909 9.76922C0.50131 9.62888 0.490309 9.48201 0.508561 9.33734C0.526812 9.19266 0.573943 9.05313 0.647156 8.92702C0.720369 8.80091 0.818173 8.69079 0.93476 8.60321L3.64216 6.43685L10.5397 0.524547Z" fill="white"/>
</svg>
