<svg width="21" height="21" viewBox="0 0 21 21" fill="none" xmlns="http://www.w3.org/2000/svg">
<path d="M20.7028 18.7465L19.2473 20.2019C19.0553 20.3928 18.7955 20.5 18.5247 20.5C18.2539 20.5 17.9942 20.3928 17.8021 20.2019L6.36126 8.78034C5.90741 8.32726 5.24186 8.18955 4.60065 8.19967C3.94806 8.19921 3.30501 8.04297 2.72496 7.74394C2.14492 7.44491 1.64463 7.01174 1.2657 6.48044C0.886771 5.94913 0.640145 5.33505 0.546327 4.68924C0.416999 3.79898 1.46801 3.50909 2.10412 4.14521L2.78647 4.82756C3.08649 5.12758 3.57291 5.12757 3.87293 4.82756L5.32837 3.37212C5.62839 3.0721 5.62839 2.58568 5.32837 2.28566L4.64602 1.60331C4.00991 0.967195 4.29979 -0.0838134 5.19005 0.0455148C5.83586 0.139332 6.44994 0.385958 6.98125 0.764888C7.51255 1.14382 7.94573 1.6441 8.24475 2.22415C8.54378 2.8042 8.70002 3.44725 8.70049 4.09984C8.69036 4.74105 8.82807 5.4066 9.28115 5.86045L20.7028 17.3013C20.8937 17.4934 21.0008 17.7531 21.0008 18.0239C21.0008 18.2947 20.8937 18.5545 20.7028 18.7465ZM0.798051 17.3013C0.607151 17.4934 0.5 17.7531 0.5 18.0239C0.5 18.2947 0.607151 18.5545 0.798051 18.7465L2.25349 20.2019C2.44553 20.3928 2.70531 20.5 2.97609 20.5C3.24687 20.5 3.50665 20.3928 3.69869 20.2019L6.47161 17.4341C8.03615 15.8724 8.03731 13.3378 6.4742 11.7747L6.40458 11.705M19.975 1.02496C19.3629 0.412864 18.4278 0.261118 17.6536 0.648241L15.948 1.50103C15.2752 1.83743 14.8502 2.52506 14.8502 3.27726C14.8502 3.80395 14.641 4.30906 14.2686 4.68149L13.651 5.29904C13.085 5.86511 13.085 6.78289 13.651 7.34896C14.2171 7.91503 15.1349 7.91503 15.701 7.34896L16.3185 6.73141C16.6909 6.35898 17.1961 6.14976 17.7227 6.14976C18.4749 6.14976 19.1626 5.72477 19.499 5.05199L20.3518 3.3464C20.7389 2.57215 20.5871 1.63706 19.975 1.02496Z" fill="white"/>
</svg>
